<?xml version="1.0" standalone="no"?>
<!DOCTYPE svg PUBLIC "-//W3C//DTD SVG 20010904//EN"
 "http://www.w3.org/TR/2001/REC-SVG-20010904/DTD/svg10.dtd">
<svg version="1.0" xmlns="http://www.w3.org/2000/svg"
 width="2450.000000pt" height="826.000000pt" viewBox="0 0 2450.000000 826.000000"
 preserveAspectRatio="xMidYMid meet">
<metadata>
Created by potrace 1.16, written by Peter Selinger 2001-2019
</metadata>
<g transform="translate(0.000000,826.000000) scale(0.100000,-0.100000)"
fill="#a39e87" stroke="none">
<path d="M4898 5670 l-1205 -2590 400 2 401 3 270 588 269 587 1042 0 1042 0
41 -97 c23 -54 42 -101 42 -105 0 -3 -93 -56 -207 -116 -1551 -821 -2721
-1670 -3452 -2507 -229 -262 -315 -409 -357 -605 -18 -86 -18 -241 1 -315 47
-184 191 -354 382 -449 204 -102 458 -84 658 45 39 25 248 200 465 389 861
750 1284 1101 1815 1506 1566 1198 3264 2140 5415 3006 l295 118 0 44 c0 24 3
47 7 52 4 4 26 -1 49 -12 l41 -18 19 23 c19 23 19 24 -2 57 -29 48 -20 66 33
62 37 -2 44 1 55 22 12 23 10 27 -24 57 -31 27 -35 34 -24 47 7 8 28 18 47 22
30 6 34 10 34 39 0 29 -4 33 -40 44 -49 15 -53 42 -10 68 29 17 36 36 24 67
-4 11 -19 16 -50 16 -54 0 -65 18 -35 56 26 33 26 46 3 68 -17 15 -22 15 -56
1 -48 -20 -59 -12 -51 36 7 38 6 40 -17 35 -12 -3 -95 -22 -183 -41 -1144
-256 -2573 -761 -3968 -1402 -114 -53 -210 -94 -212 -92 -2 3 -394 873 -870
1934 -477 1062 -870 1933 -874 1937 -4 4 -549 -1158 -1213 -2582z m1553 119
c193 -442 353 -810 356 -816 4 -10 -145 -13 -726 -13 -402 0 -731 3 -731 7 0
12 743 1634 746 1630 2 -2 162 -365 355 -808z m5560 -174 c79 -41 47 -165 -43
-165 -35 0 -88 48 -88 79 0 36 19 70 47 85 36 19 47 19 84 1z m-582 -669 c-2
-2 -80 -37 -174 -76 -190 -81 -946 -415 -1215 -538 -866 -394 -1791 -900
-2460 -1345 -589 -393 -982 -681 -1615 -1186 -322 -256 -1246 -1034 -1378
-1159 -20 -20 -37 -33 -37 -30 0 14 556 512 925 829 782 671 1394 1137 2145
1631 532 350 876 548 1545 889 592 301 1172 559 2000 888 230 92 276 108 264
97z m-7506 -3990 c125 -45 158 -207 61 -298 -70 -65 -169 -65 -237 0 -41 39
-57 74 -57 127 0 83 41 143 117 170 48 18 68 18 116 1z m617 -349 c0 -2 -15
-16 -32 -33 l-33 -29 29 33 c28 30 36 37 36 29z"/>
<path d="M0 5520 l0 -2440 370 0 370 0 0 1160 0 1160 820 0 820 0 0 345 0 345
-820 0 -820 0 0 585 0 585 850 0 850 0 -2 348 -3 347 -1217 3 -1218 2 0 -2440z"/>
<path d="M11196 7949 c-67 -16 -75 -30 -78 -133 -3 -100 -6 -104 -86 -121 -31
-6 -33 -5 -54 42 -39 90 -66 123 -96 123 -43 0 -151 -40 -162 -60 -6 -12 -3
-44 11 -101 11 -45 18 -88 15 -95 -5 -12 -84 -54 -103 -54 -5 0 -37 36 -69 80
-32 44 -62 80 -66 80 -19 0 -151 -86 -160 -105 -7 -17 -2 -40 26 -108 l35 -88
-40 -26 -39 -26 0 -929 c0 -807 2 -929 14 -925 16 6 576 188 666 216 l55 18 3
257 2 258 56 -79 c61 -84 98 -131 212 -265 l74 -86 42 15 c22 8 103 29 179 47
127 31 157 41 146 49 -2 2 -68 60 -146 130 -263 237 -382 381 -443 538 -67
173 -97 375 -85 557 l7 105 287 -6 c305 -5 453 -20 649 -63 247 -55 496 -163
664 -289 184 -138 383 -384 479 -590 129 -279 188 -626 159 -942 -7 -82 -13
-163 -14 -181 l-1 -33 228 -120 c126 -65 233 -119 238 -119 5 0 9 9 9 20 0 12
11 32 25 46 23 23 31 25 106 22 73 -3 83 -1 99 19 20 25 44 144 35 172 -4 12
-30 26 -81 41 -100 29 -117 46 -108 108 3 26 8 50 10 53 2 4 40 8 84 11 112 7
120 15 120 129 0 59 -4 90 -12 96 -7 4 -53 12 -103 18 l-90 10 -9 52 c-6 36
-5 57 2 66 6 7 45 24 87 37 104 33 110 41 95 132 -19 112 -15 108 -130 108
l-99 0 -16 30 c-20 38 -19 73 3 92 9 9 45 30 79 47 77 38 84 57 53 144 -33 93
-41 97 -143 79 -47 -8 -92 -12 -101 -9 -12 5 -56 84 -56 101 0 1 32 24 70 50
97 67 100 88 25 206 -32 50 -47 51 -150 6 l-79 -34 -33 46 c-18 26 -33 51 -33
55 0 5 24 34 54 65 85 90 84 89 23 167 -28 36 -62 68 -75 72 -16 4 -43 -8
-100 -46 l-77 -50 -42 41 c-24 23 -43 46 -43 51 0 4 18 35 40 67 56 82 63 104
42 128 -39 43 -110 92 -136 92 -18 0 -45 -17 -86 -55 -33 -30 -66 -55 -73 -55
-25 0 -82 45 -85 67 -2 11 8 49 22 84 27 64 31 95 18 115 -12 19 -129 84 -150
84 -13 0 -39 -25 -73 -70 -60 -78 -79 -85 -138 -49 -37 22 -38 33 -10 151 10
44 10 60 1 71 -16 19 -158 71 -176 64 -7 -3 -35 -44 -61 -92 -34 -62 -51 -85
-62 -81 -8 3 -23 6 -34 6 -11 0 -32 12 -46 26 -24 25 -25 30 -20 99 6 61 4 77
-11 95 -30 37 -168 54 -193 24 -8 -9 -25 -51 -39 -93 l-25 -76 -43 -3 c-62 -5
-92 17 -92 67 0 72 -10 99 -39 105 -55 10 -497 15 -535 5z m-149 -861 c-3 -8
-6 -5 -6 6 -1 11 2 17 5 13 3 -3 4 -12 1 -19z m3 -155 c22 -240 94 -423 250
-643 l32 -45 -42 45 c-154 166 -245 397 -257 645 -3 66 -3 118 0 115 4 -3 11
-56 17 -117z"/>
<path d="M16320 5700 c0 -1243 -3 -2260 -6 -2260 -3 0 -263 148 -577 329 -802
461 -1552 872 -2532 1388 -593 312 -620 326 -666 318 -41 -7 -69 -27 -69 -50
0 -7 20 -29 44 -49 42 -34 44 -38 34 -66 -10 -29 -12 -30 -72 -30 -49 0 -64
-4 -73 -19 -9 -15 -6 -26 18 -62 35 -53 35 -56 8 -85 l-22 -23 -48 25 c-39 19
-54 22 -69 14 -11 -6 -20 -14 -20 -18 0 -4 93 -56 207 -117 324 -172 902 -488
1078 -590 88 -50 239 -134 335 -185 336 -179 468 -267 577 -384 33 -35 70 -85
83 -111 37 -77 36 -121 -9 -299 -25 -96 -41 -182 -41 -217 0 -109 60 -218 161
-296 52 -40 4599 -2797 4708 -2855 65 -35 162 -39 226 -9 88 40 125 89 351
471 119 201 227 388 240 415 27 58 32 137 10 189 -19 45 -80 111 -141 152 -27
19 -739 431 -1582 917 l-1532 882 1035 3 1034 2 0 345 0 345 -975 0 -975 0 0
815 0 815 945 0 945 0 0 345 0 345 -945 0 -945 0 0 585 0 585 975 0 975 0 0
350 0 350 -1345 0 -1345 0 0 -2260z m-2250 -1157 c685 -350 1375 -734 3065
-1708 1108 -638 2389 -1386 2410 -1407 14 -15 -1 -6 -385 207 -888 494 -2236
1258 -3325 1885 -1011 583 -1755 992 -2537 1395 -126 64 -228 118 -228 120 0
7 643 -310 1000 -492z m1355 -1045 c49 -28 311 -175 580 -326 672 -377 1001
-563 1625 -922 294 -169 798 -455 1120 -635 799 -448 979 -559 1105 -682 30
-30 65 -73 76 -96 38 -74 32 -94 -86 -292 -59 -99 -116 -191 -128 -203 -56
-61 -130 -66 -229 -16 -29 14 -710 402 -1513 861 -1636 936 -1483 849 -1470
836 6 -6 537 -329 1180 -718 644 -390 1295 -784 1448 -878 304 -184 367 -217
434 -225 24 -2 46 -8 48 -13 8 -12 -53 -51 -94 -60 -22 -5 -52 -5 -70 1 -45
13 -4686 2825 -4748 2877 -32 27 -62 64 -79 99 -23 48 -26 63 -22 127 4 55 12
86 33 125 31 56 130 172 147 172 10 0 588 -295 896 -457 67 -35 122 -62 122
-60 0 3 -198 135 -439 293 -242 159 -438 290 -437 292 2 1 419 -216 927 -484
508 -267 933 -491 944 -496 77 -39 -97 67 -805 492 -443 265 -809 487 -815
492 -24 23 167 -57 250 -104z m4195 -2114 c0 -2 -13 2 -30 11 -16 9 -30 18
-30 21 0 2 14 -2 30 -11 17 -9 30 -18 30 -21z"/>
<path d="M21290 7610 l0 -350 996 0 c793 0 995 -3 991 -12 -2 -7 -538 -946
-1191 -2086 -652 -1141 -1186 -2076 -1186 -2078 0 -2 799 -4 1775 -4 l1775 0
0 345 0 345 -1165 0 c-641 0 -1165 4 -1165 8 0 5 534 941 1186 2081 652 1140
1188 2079 1191 2087 4 12 -213 14 -1601 14 l-1606 0 0 -350z"/>
<path d="M10835 4496 c-126 -56 -292 -131 -367 -166 l-138 -63 0 -279 c0 -153
3 -278 8 -278 4 0 22 -13 40 -28 l33 -28 -35 -74 c-40 -83 -44 -110 -18 -132
35 -30 123 -78 142 -78 18 0 56 42 123 134 13 18 15 18 60 1 69 -26 74 -35 54
-110 -31 -117 -23 -139 67 -169 96 -32 117 -22 160 76 33 74 51 83 113 60 l48
-18 -3 -85 c-5 -105 6 -122 95 -144 94 -24 110 -13 143 95 28 93 32 96 106 85
49 -7 49 -8 59 -108 10 -97 22 -107 130 -107 100 0 99 -2 113 118 6 46 12 86
15 88 3 3 29 8 59 11 65 6 66 5 98 -100 13 -44 31 -82 41 -87 19 -11 167 14
184 31 6 6 9 50 7 108 l-3 97 39 12 c75 23 85 18 117 -48 51 -107 76 -118 180
-79 74 28 82 45 61 139 -9 40 -14 81 -11 91 6 18 72 59 94 59 6 0 34 -31 61
-69 52 -72 73 -87 106 -74 42 16 132 74 138 88 3 9 -10 54 -29 101 -19 46 -35
88 -35 92 0 4 23 22 51 40 l51 33 68 -65 c37 -36 76 -66 85 -66 16 0 84 49
127 93 27 26 22 50 -27 126 -25 38 -45 73 -45 78 0 5 19 28 43 50 l42 42 70
-45 c97 -63 116 -60 177 30 27 38 48 73 48 77 0 4 -27 37 -60 73 -33 37 -60
70 -60 74 0 5 12 24 26 43 14 19 29 40 33 47 5 9 26 4 85 -23 74 -35 125 -42
133 -20 2 8 -401 242 -572 332 l-41 22 -64 -92 c-94 -134 -299 -336 -434 -426
-354 -235 -690 -310 -1408 -311 l-148 0 -2 415 -3 415 -230 -104z"/>
<path d="M8594 979 c-87 -188 -160 -345 -162 -350 -2 -5 22 -9 53 -9 l57 0 36
80 36 80 141 0 141 0 33 -80 33 -80 54 0 c33 0 54 4 54 11 0 17 -303 689 -310
689 -4 0 -79 -154 -166 -341z m215 2 c22 -52 39 -96 37 -98 -2 -2 -44 -2 -93
-1 l-90 3 45 103 c25 56 49 99 53 95 3 -5 25 -50 48 -102z"/>
<path d="M10203 1282 c-71 -26 -127 -65 -164 -115 -138 -187 -78 -429 130
-525 75 -35 201 -37 274 -4 l47 21 0 61 c0 60 -8 72 -29 46 -6 -8 -35 -24 -63
-36 -92 -39 -190 -18 -262 56 -94 97 -84 260 22 356 75 68 166 76 266 24 l66
-35 0 60 0 60 -47 21 c-67 30 -173 34 -240 10z"/>
<path d="M12987 1290 c-59 -15 -115 -48 -162 -95 -169 -169 -119 -451 99 -551
164 -75 365 -10 449 144 94 174 28 386 -148 473 -71 35 -167 46 -238 29z m190
-113 c39 -21 89 -70 109 -110 22 -41 29 -133 14 -186 -8 -30 -27 -59 -63 -95
-80 -79 -168 -97 -262 -52 -119 56 -172 182 -130 307 19 55 87 125 141 145 48
18 148 13 191 -9z"/>
<path d="M7230 955 l0 -336 53 3 52 3 3 158 3 157 109 0 110 0 0 50 0 50 -110
0 -110 0 0 75 0 75 116 0 115 0 -3 48 -3 47 -167 3 -168 2 0 -335z"/>
<path d="M11417 1283 c-4 -3 -7 -26 -7 -50 l0 -43 75 0 75 0 2 -282 3 -283 53
-3 52 -3 0 285 0 286 75 0 75 0 0 50 0 50 -198 0 c-109 0 -202 -3 -205 -7z"/>
<path d="M14410 956 l0 -337 53 3 52 3 5 135 5 135 35 -48 c19 -27 62 -88 95
-135 l61 -87 62 -3 c34 -2 62 0 62 3 0 4 -43 65 -95 137 -52 72 -95 134 -95
138 0 4 13 13 29 20 65 26 101 88 101 171 0 132 -74 188 -262 197 l-108 5 0
-337z m202 224 c46 -13 68 -43 68 -91 0 -53 -30 -85 -91 -98 -27 -6 -54 -11
-59 -11 -6 0 -10 45 -10 105 l0 105 28 0 c15 0 44 -5 64 -10z"/>
<path d="M15700 1286 c0 -2 46 -84 103 -182 l102 -179 5 -150 5 -150 53 -3 52
-3 0 146 0 146 99 172 c55 95 103 180 107 190 6 16 1 18-52 15 l-59 -3 -70
-122 c-39 -67 -73 -124 -76 -127 -2 -3 -37 53 -78 125 l-73 129 -59 0 c-32 0
-59 -2 -59 -4z"/>
</g>
</svg>